<svg width="38" height="38" viewBox="0 0 38 38" fill="none" xmlns="http://www.w3.org/2000/svg">
<path d="M31.875 0H5.625C4.13316 0 2.70242 0.592632 1.64752 1.64752C0.592632 2.70242 0 4.13316 0 5.625V31.875C0 33.3668 0.592632 34.7976 1.64752 35.8525C2.70242 36.9074 4.13316 37.5 5.625 37.5H31.875C32.1834 37.4957 32.4908 37.4643 32.7937 37.4063L33.3563 37.275H33.4875H33.5812L34.275 37.0125L34.5187 36.8813C34.7062 36.7688 34.9125 36.675 35.1 36.5437C35.3504 36.3595 35.5884 36.1591 35.8125 35.9438L35.9438 35.775C36.1278 35.5885 36.2971 35.3878 36.45 35.175L36.6188 34.9312C36.7497 34.7225 36.8626 34.503 36.9562 34.275C37.0077 34.185 37.0516 34.091 37.0875 33.9937C37.1813 33.7687 37.2375 33.525 37.3125 33.2812V33C37.4188 32.6336 37.4817 32.256 37.5 31.875V5.625C37.5 4.13316 36.9074 2.70242 35.8525 1.64752C34.7976 0.592632 33.3668 0 31.875 0ZM5.625 33.75C5.12772 33.75 4.65081 33.5525 4.29918 33.2008C3.94754 32.8492 3.75 32.3723 3.75 31.875V23.7937L9.91875 17.6063C10.0931 17.4305 10.3004 17.291 10.5289 17.1958C10.7574 17.1006 11.0025 17.0516 11.25 17.0516C11.4975 17.0516 11.7426 17.1006 11.9711 17.1958C12.1996 17.291 12.4069 17.4305 12.5813 17.6063L28.7062 33.75H5.625ZM33.75 31.875C33.7482 32.1062 33.7037 32.335 33.6188 32.55C33.5759 32.6414 33.5257 32.7292 33.4688 32.8125C33.4186 32.8919 33.3622 32.9671 33.3 33.0375L23.2687 23.0063L24.9187 21.3563C25.0931 21.1805 25.3004 21.041 25.5289 20.9458C25.7574 20.8506 26.0025 20.8016 26.25 20.8016C26.4975 20.8016 26.7426 20.8506 26.9711 20.9458C27.1996 21.041 27.4069 21.1805 27.5812 21.3563V21.3563L33.75 27.5438V31.875ZM33.75 22.2375L30.225 18.75C29.152 17.7319 27.7292 17.1643 26.25 17.1643C24.7708 17.1643 23.348 17.7319 22.275 18.75L20.625 20.4L15.225 15C14.152 13.9819 12.7292 13.4143 11.25 13.4143C9.77082 13.4143 8.34802 13.9819 7.275 15L3.75 18.4875V5.625C3.75 5.12772 3.94754 4.65081 4.29918 4.29918C4.65081 3.94754 5.12772 3.75 5.625 3.75H31.875C32.3723 3.75 32.8492 3.94754 33.2008 4.29918C33.5525 4.65081 33.75 5.12772 33.75 5.625V22.2375Z" fill="#A0AEB7"/>
</svg>
