<svg width="45" height="45" viewBox="0 0 45 45" fill="none" xmlns="http://www.w3.org/2000/svg">
<path fill-rule="evenodd" clip-rule="evenodd" d="M0 44.9079V5.43377C0 3.60677 1.04569 2.0465 2.73578 1.35016C4.42588 0.65382 6.26705 1.02677 7.5535 2.32739L42.276 37.3875C43.5578 38.681 43.9142 40.5127 43.2131 42.1934C42.5121 43.874 40.9589 44.9103 39.139 44.9103H0.00236047L0 44.9079ZM2.8963 39.3844H6.2104V42.5026H2.8963V39.3844ZM9.52214 39.3844H12.8362V42.5026H9.52214V39.3844ZM16.148 39.3844H19.4621V42.5026H16.148V39.3844ZM22.7738 39.3844H26.0879V42.5026H22.7738V39.3844ZM29.3997 39.3844H32.7138V42.5026H29.3997V39.3844ZM36.0255 39.3844H39.3396V42.5026H36.0255V39.3844Z" fill="#3DC76F"/>
<path fill-rule="evenodd" clip-rule="evenodd" d="M30.8135 20.0026L11.1201 0H40.508C42.3421 0 43.907 1.05513 44.5987 2.75467C45.2879 4.45421 44.9008 6.30245 43.586 7.58183L30.8135 20.005V20.0026ZM18.5556 2.11026H21.8697V5.22844H18.5556V2.11026ZM25.1814 2.11026H28.4955V5.22844H25.1814V2.11026ZM31.8073 2.11026H35.1214V5.22844H31.8073V2.11026ZM38.4331 2.11026H41.7472V5.22844H38.4331V2.11026Z" fill="#3DC76F"/>
</svg>
